<svg width="43" height="42" viewBox="0 0 43 42" fill="none" xmlns="http://www.w3.org/2000/svg">
<path d="M12.75 15.75V12.25H37.25V15.75H12.75ZM12.75 22.75V19.25H37.25V22.75H12.75ZM12.75 29.75V26.25H37.25V29.75H12.75ZM7.50001 15.75C7.00417 15.75 6.58884 15.582 6.25401 15.246C5.91917 14.91 5.75117 14.4947 5.75001 14C5.74884 13.5053 5.91684 13.09 6.25401 12.754C6.59117 12.418 7.00651 12.25 7.50001 12.25C7.99351 12.25 8.40942 12.418 8.74776 12.754C9.08609 13.09 9.25351 13.5053 9.25001 14C9.24651 14.4947 9.07851 14.9106 8.74601 15.2478C8.41351 15.5849 7.99817 15.7523 7.50001 15.75ZM7.50001 22.75C7.00417 22.75 6.58884 22.582 6.25401 22.246C5.91917 21.91 5.75117 21.4947 5.75001 21C5.74884 20.5053 5.91684 20.09 6.25401 19.754C6.59117 19.418 7.00651 19.25 7.50001 19.25C7.99351 19.25 8.40942 19.418 8.74776 19.754C9.08609 20.09 9.25351 20.5053 9.25001 21C9.24651 21.4947 9.07851 21.9106 8.74601 22.2477C8.41351 22.5849 7.99817 22.7523 7.50001 22.75ZM7.50001 29.75C7.00417 29.75 6.58884 29.582 6.25401 29.246C5.91917 28.91 5.75117 28.4947 5.75001 28C5.74884 27.5053 5.91684 27.09 6.25401 26.754C6.59117 26.418 7.00651 26.25 7.50001 26.25C7.99351 26.25 8.40942 26.418 8.74776 26.754C9.08609 27.09 9.25351 27.5053 9.25001 28C9.24651 28.4947 9.07851 28.9106 8.74601 29.2477C8.41351 29.5849 7.99817 29.7523 7.50001 29.75Z" fill="white"/>
</svg>
